<svg xmlns="http://www.w3.org/2000/svg" viewBox="0 0 12.42 340.88">
    <defs>
        <mask id="halfMask">
            <rect width="100%" height="240.44" fill="white" />
        </mask>
    </defs>
    <title>Asset 1</title>
    <g id="Layer_2">
        <g id="Layer_1-2">
            <path class="cls-2" fill="white" opacity="0.2" d="M6.21,340.88c-7.15,0-8.94-11.21-1-12.84V230.79c-6.3-1-7.55-11.2,0-12.75V120.79c-6.3-1-7.55-11.2,0-12.75V12.91C-1.36,11.87-2.44.84,6.21,0c7.15,0,8.94,11.21,1,12.84V108c6.3,1,7.55,11.2,0,12.75V218c6.3,1,7.55,11.2,0,12.75V328C13.78,329,14.86,340,6.21,340.88Z" />
            <path class="cls-1" fill="white" opacity="1" d="M6.21,340.88c-7.15,0-8.94-11.21-1-12.84V230.79c-6.3-1-7.55-11.2,0-12.75V120.79c-6.3-1-7.55-11.2,0-12.75V12.91C-1.36,11.87-2.44.84,6.21,0c7.15,0,8.94,11.21,1,12.84V108c6.3,1,7.55,11.2,0,12.75V218c6.3,1,7.55,11.2,0,12.75V328C13.78,329,14.86,340,6.21,340.88Z" mask="url(#halfMask)" />
        </g>
    </g>
</svg>
